<!DOCTYPE svg PUBLIC "-//W3C//DTD SVG 1.1//EN" "http://www.w3.org/Graphics/SVG/1.1/DTD/svg11.dtd">
<!-- Uploaded to: SVG Repo, www.svgrepo.com, Transformed by: SVG Repo Mixer Tools -->
<svg fill="#000000" width="131px" height="131px" viewBox="0 0 24 24" id="messenger" data-name="Flat Color" xmlns="http://www.w3.org/2000/svg" class="icon flat-color">
<g id="SVGRepo_bgCarrier" stroke-width="0"/>
<g id="SVGRepo_tracerCarrier" stroke-linecap="round" stroke-linejoin="round"/>
<g id="SVGRepo_iconCarrier">
<path id="primary" d="M19.07,4.93A10,10,0,0,0,3,16.26L2,20.8a1,1,0,0,0,.27.91A1,1,0,0,0,3.2,22L7.74,21A9.89,9.89,0,0,0,12,22a10.61,10.61,0,0,0,1.85-.17,10,10,0,0,0,5.22-16.9Z" style="fill: #000000;"/>
<path id="secondary" d="M8,14a1,1,0,0,1-.55-1.83l3-2a1,1,0,0,1,1.26.12l1.42,1.42,2.32-1.54a1,1,0,1,1,1.1,1.66l-3,2a1,1,0,0,1-1.26-.12l-1.42-1.42L8.55,13.83A.94.94,0,0,1,8,14Z" style="fill: #fafafa;"/>
</g>
</svg>